<svg xmlns="http://www.w3.org/2000/svg" enable-background="new 0 0 60 60" viewBox="0 0 60 60" id="disney-plus"><path fill="#000" d="M50,60H10C4.477,60,0,55.523,0,50V10C0,4.477,4.477,0,10,0h40c5.523,0,10,4.477,10,10v40
		C60,55.523,55.523,60,50,60z"></path><path fill="#000" d="M30,53.5c-6.716,0-13.527-0.851-20.243-2.53c-0.358-0.09-0.638-0.369-0.728-0.728
		C7.351,43.529,6.5,36.718,6.5,30c0-6.716,0.851-13.527,2.53-20.243C9.12,9.399,9.399,9.12,9.757,9.03
		c2.357-0.589,4.748-1.082,7.106-1.464c0.547-0.087,1.059,0.283,1.147,0.827c0.088,0.545-0.282,1.059-0.827,1.147
		c-2.108,0.341-4.244,0.774-6.357,1.286C9.283,17.194,8.5,23.642,8.5,30c0,6.36,0.782,12.807,2.326,19.173
		c12.738,3.089,25.618,3.088,38.347,0C50.717,42.806,51.5,36.358,51.5,30c0-6.36-0.782-12.807-2.326-19.173
		c-9.325-2.261-18.754-2.875-28.077-1.825c-0.544,0.06-1.043-0.333-1.105-0.882c-0.062-0.549,0.333-1.044,0.882-1.105
		c9.751-1.1,19.626-0.42,29.369,2.016c0.358,0.09,0.638,0.369,0.728,0.728C52.649,16.471,53.5,23.282,53.5,30
		c0,6.716-0.851,13.527-2.53,20.243c-0.09,0.358-0.369,0.638-0.728,0.728C43.529,52.649,36.718,53.5,30,53.5z"></path><path fill="#000" d="M30,49.5c-5.804,0-11.686-0.669-17.51-1.99c-2.637-11.628-2.637-23.391,0-35.02
		C18.314,11.169,24.196,10.5,30,10.5s11.686,0.669,17.51,1.99c2.637,11.628,2.637,23.391,0,35.02C41.686,48.831,35.804,49.5,30,49.5
		z"></path><path fill="#fff" d="M22.923,38.978c-0.552,0-1-0.448-1-1V27.346c0-0.552,0.448-1,1-1s1,0.448,1,1v10.632
			C23.923,38.53,23.475,38.978,22.923,38.978z"></path><path fill="#fff" d="M27.11 38.088c-4.526 0-10.824-2.929-10.824-5.813 0-2.912 8.137-2.945 8.483-2.945.924 0 5.616.483 5.616 2.78 0 1.353-1.478 2.038-1.646 2.112-.505.22-1.095-.009-1.317-.516-.221-.506.01-1.096.516-1.317.109-.05.238-.134.333-.212-.564-.369-2.179-.847-3.501-.847-3.434 0-5.839.669-6.451 1.111.409 1.119 4.579 3.647 8.792 3.647.596 0 5.824-.096 5.824-3.426 0-6.29-8.437-9.64-14.527-9.64-1.304 0-2.14.14-2.629.281.233.204.373.509.347.836-.044.551-.507.97-1.061.924-.867-.069-1.745-.706-1.745-1.788 0-1.028.883-2.253 5.088-2.253 7.948 0 16.527 4.45 16.527 11.64C34.934 35.958 31.863 38.088 27.11 38.088zM47.599 31H37.165c-.552 0-1-.448-1-1s.448-1 1-1h10.434c.552 0 1 .448 1 1S48.151 31 47.599 31z"></path><path fill="#fff" d="M41.848,36.217c-0.047,0-0.095-0.003-0.143-0.01c-0.546-0.078-0.927-0.584-0.849-1.131
			c0.24-1.681,0.361-3.389,0.361-5.076c0-1.685-0.121-3.393-0.361-5.076c-0.078-0.547,0.303-1.053,0.85-1.131
			c0.542-0.079,1.053,0.303,1.131,0.85c0.252,1.776,0.38,3.579,0.38,5.357c0,1.782-0.128,3.584-0.38,5.358
			C42.765,35.857,42.337,36.217,41.848,36.217z"></path></svg>
